<svg width="80" height="64" viewBox="0 0 80 64" fill="none" xmlns="http://www.w3.org/2000/svg">
<path d="M72.5437 54.3563C67.0486 60.3135 58.7335 63.3333 47.8334 63.3333L43.9168 63.3333L43.9168 52.2922L47.0658 51.6616C52.4316 50.5884 56.1642 48.4773 58.1617 45.3793C59.2039 43.7103 59.7951 41.7993 59.8772 39.8333L47.8334 39.8333C46.7947 39.8333 45.7985 39.4206 45.0639 38.6861C44.3294 37.9516 43.9168 36.9554 43.9168 35.9166L43.9168 8.49993C43.9168 4.17985 47.43 0.666597 51.7501 0.666596L75.2501 0.666592C76.2889 0.666592 77.2851 1.07924 78.0196 1.81376C78.7541 2.54827 79.1668 3.54449 79.1668 4.58326L79.1668 24.1666L79.155 35.5993C79.1903 36.0341 79.9344 46.3349 72.5437 54.3563ZM8.66676 0.666604L32.1668 0.6666C33.2055 0.6666 34.2018 1.07924 34.9363 1.81376C35.6708 2.54828 36.0834 3.5445 36.0834 4.58327L36.0834 24.1666L36.0717 35.5993C36.1069 36.0341 36.8511 46.3349 29.4604 54.3563C23.9653 60.3135 15.6502 63.3333 4.75011 63.3333L0.833443 63.3333L0.833441 52.2922L3.98244 51.6616C9.34828 50.5884 13.0809 48.4773 15.0784 45.3793C16.1206 43.7103 16.7117 41.7993 16.7939 39.8333L4.7501 39.8333C3.71134 39.8333 2.71511 39.4206 1.9806 38.6861C1.24608 37.9516 0.833438 36.9554 0.833438 35.9166L0.833433 8.49994C0.833432 4.17985 4.34668 0.666605 8.66676 0.666604Z" fill="#0C455E"/>
</svg>
