<svg width="80" height="64" viewBox="0 0 80 64" fill="none" xmlns="http://www.w3.org/2000/svg">
<path d="M7.4563 9.64375C12.9514 3.6865 21.2665 0.666748 32.1666 0.666748H36.0832V11.7078L32.9342 12.3384C27.5684 13.4116 23.8358 15.5227 21.8383 18.6207C20.7961 20.2898 20.2049 22.2008 20.1228 24.1667H32.1666C33.2053 24.1667 34.2015 24.5794 34.9361 25.3139C35.6706 26.0484 36.0832 27.0446 36.0832 28.0834V55.5001C36.0832 59.8202 32.57 63.3334 28.2499 63.3334H4.74989C3.71112 63.3334 2.7149 62.9208 1.98039 62.1862C1.24587 61.4517 0.833221 60.4555 0.833221 59.4167V39.8334L0.844971 28.4007C0.809721 27.9659 0.0655544 17.6651 7.4563 9.64375ZM71.3332 63.3334H47.8332C46.7945 63.3334 45.7982 62.9208 45.0637 62.1862C44.3292 61.4517 43.9166 60.4555 43.9166 59.4167V39.8334L43.9283 28.4007C43.8931 27.9659 43.1489 17.6651 50.5396 9.64375C56.0347 3.6865 64.3498 0.666748 75.2499 0.666748H79.1666V11.7078L76.0176 12.3384C70.6517 13.4116 66.9191 15.5227 64.9216 18.6207C63.8794 20.2898 63.2883 22.2008 63.2061 24.1667H75.2499C76.2887 24.1667 77.2849 24.5794 78.0194 25.3139C78.7539 26.0484 79.1666 27.0446 79.1666 28.0834V55.5001C79.1666 59.8202 75.6533 63.3334 71.3332 63.3334Z" fill="#0C455E"/>
</svg>
