<svg width="114" height="114" viewBox="0 0 114 114" fill="none" xmlns="http://www.w3.org/2000/svg">
<path d="M21.5684 75.8081C23.7818 75.8081 25.5762 74.0137 25.5762 71.8003C25.5762 69.5868 23.7818 67.7925 21.5684 67.7925C19.3549 67.7925 17.5605 69.5868 17.5605 71.8003C17.5605 74.0137 19.3549 75.8081 21.5684 75.8081Z" fill="white"/>
<path d="M40.6836 75.8081C42.897 75.8081 44.6914 74.0137 44.6914 71.8003C44.6914 69.5868 42.897 67.7925 40.6836 67.7925C38.4701 67.7925 36.6758 69.5868 36.6758 71.8003C36.6758 74.0137 38.4701 75.8081 40.6836 75.8081Z" fill="white"/>
<path d="M24.1262 84.8871C25.3749 87.176 27.8989 89.2191 31.1301 89.2191C34.3613 89.2191 36.8835 87.1778 38.1322 84.8871C38.4689 84.2708 38.0235 83.6064 37.5266 83.9894C33.4065 87.1974 28.8323 87.176 24.7283 83.9894C24.2331 83.6082 23.7878 84.2726 24.1262 84.8871Z" fill="white"/>
<path d="M96.7504 90.7529C100.919 87.5983 104.413 83.3002 105.299 78.2699C107.787 77.8852 110.438 76.2963 110.438 71.2821C110.438 66.8663 108.809 65.5447 107.433 65.2169C107.288 47.1034 102.867 39.3799 83.0383 39.1928C63.0456 39.0023 57.7784 47.0588 57.5878 65.4431C57.3782 65.5492 57.181 65.6782 57 65.8279V65.3184C57 43.2381 42.5327 43.6513 42.5327 43.6513C42.5327 43.6513 41.4443 39.1875 30.283 39.1875C12.9996 39.1875 3.5625 50.4628 3.5625 65.3184V110.438H110.438V97.568C110.438 94.1729 104.581 91.9036 96.7504 90.7529ZM10.4969 65.3915C21.22 65.3915 38.6905 51.4443 38.6905 51.4443C38.6905 51.4443 45.2936 63.7563 51.6669 65.3915C51.6669 65.3915 54.7574 65.9579 54.7574 70.8474C54.7574 76.7238 50.6374 77.7391 50.6374 77.7391C50.5857 86.6079 38.4786 95.5231 31.1327 95.5231C23.7779 95.5231 11.4695 86.6062 11.4695 77.7391C11.4695 77.7391 7.49906 76.7238 7.49906 70.8474C7.49906 66.1912 10.4969 65.3915 10.4969 65.3915ZM56.1094 108.694L5.34197 108.656V97.568C5.34197 95.7618 9.95363 93.4586 18.7209 92.3347C22.7982 95.3681 27.5007 97.3026 31.1327 97.3026C34.6453 97.3026 39.1839 95.4465 43.1722 92.5181C51.072 93.6973 56.1112 97.1494 56.1112 98.8594V108.694H56.1094ZM56.9466 71.2821C56.9466 68.3751 57.6537 66.9002 59.0538 66.9002C59.1464 66.9002 59.239 66.9055 59.3334 66.9162C59.5187 67.9814 59.736 68.7491 59.9943 69.2568C60.632 70.4983 61.845 71.177 61.9822 71.25L63.4748 72.0533L63.2362 70.3344C63.0494 68.7177 62.988 67.0889 63.0527 65.4627C63.6441 56.5102 64.2123 55.3167 66.1574 55.3167C67.0409 55.3167 68.2539 55.5643 69.7912 55.8743C72.7854 56.4817 76.8841 57.3135 82.8246 57.3135C88.765 57.3135 92.8655 56.4817 95.858 55.8743C97.3952 55.5625 98.6082 55.3167 99.4935 55.3167C101.44 55.3167 102.009 56.5137 102.593 65.4609C102.696 68.27 102.417 70.3148 102.413 70.3344L102.173 72.0569L103.671 71.25C103.808 71.177 105.017 70.4983 105.657 69.2568C105.918 68.7456 106.134 67.9939 106.323 66.9162C107.889 66.7452 108.71 68.1863 108.71 71.2821C108.71 74.6771 107.367 76.3586 104.485 76.5742L103.779 76.6258L103.688 77.3454C102.354 87.9243 88.3714 94.6325 82.8246 94.6325C77.2777 94.6325 63.2949 87.9243 61.9643 77.3454L61.8735 76.6258L61.1681 76.5742C58.2896 76.3568 56.9466 74.6771 56.9466 71.2821ZM57 76.6401C57.9548 77.6126 59.1713 78.0864 60.3577 78.2699C61.2643 83.4284 64.9123 87.8174 69.2194 90.9934C62.1425 92.2046 57 94.3884 57 97.568V76.6401ZM108.654 108.656L57.8906 108.658V98.8612C57.8906 95.7992 63.5443 93.5513 71.3569 92.454C75.4288 94.9745 79.7751 96.4137 82.8263 96.4137C85.9524 96.4137 90.4341 94.8961 94.5897 92.2616C103.289 93.293 108.654 95.4821 108.654 97.568V108.656Z" fill="white"/>
<path d="M73.0469 75.8081C75.2603 75.8081 77.0547 74.0137 77.0547 71.8003C77.0547 69.5868 75.2603 67.7925 73.0469 67.7925C70.8334 67.7925 69.0391 69.5868 69.0391 71.8003C69.0391 74.0137 70.8334 75.8081 73.0469 75.8081Z" fill="white"/>
<path d="M92.6367 75.8081C94.8502 75.8081 96.6445 74.0137 96.6445 71.8003C96.6445 69.5868 94.8502 67.7925 92.6367 67.7925C90.4233 67.7925 88.6289 69.5868 88.6289 71.8003C88.6289 74.0137 90.4233 75.8081 92.6367 75.8081Z" fill="white"/>
<path d="M75.8333 84.8873C77.0819 87.1762 79.6077 89.2193 82.8407 89.2193C86.0737 89.2193 88.5977 87.178 89.8481 84.8873C90.1848 84.271 89.7359 83.6066 89.2425 83.9896C85.1207 87.1976 80.5411 87.1762 76.4371 83.9896C75.9419 83.6084 75.4966 84.2728 75.8333 84.8873ZM56.9948 46.3126C59.134 44.3853 89.0163 28.8243 82.8924 12.6113C77.2013 -2.45626 58.7065 4.30358 56.9948 11.8294C54.6435 3.81018 36.6119 -2.16948 31.1079 12.6185C24.9804 29.0986 54.859 43.8919 56.9948 46.3126Z" fill="white"/>
</svg>
