<svg width="31" height="32" viewBox="0 0 31 32" fill="none" xmlns="http://www.w3.org/2000/svg">
<g clip-path="url(#clip0_56_511)">
<path d="M27.2546 5.55664H3.40656C2.95478 5.55664 2.5215 5.73611 2.20205 6.05556C1.88259 6.37502 1.70313 6.80829 1.70312 7.26007V24.2944C1.70313 24.7462 1.88259 25.1794 2.20205 25.4989C2.5215 25.8183 2.95478 25.9978 3.40656 25.9978H27.2546C27.7064 25.9978 28.1396 25.8183 28.4591 25.4989C28.7786 25.1794 28.958 24.7462 28.958 24.2944V7.26007C28.958 6.80829 28.7786 6.37502 28.4591 6.05556C28.1396 5.73611 27.7064 5.55664 27.2546 5.55664ZM25.943 24.2944H4.8204L10.7824 18.128L9.55594 16.9441L3.40656 23.3064V8.55468L13.9934 19.0904C14.3125 19.4077 14.7443 19.5857 15.1943 19.5857C15.6443 19.5857 16.0761 19.4077 16.3952 19.0904L27.2546 8.29065V23.1957L20.986 16.927L19.785 18.128L25.943 24.2944ZM4.5223 7.26007H25.8748L15.1943 17.881L4.5223 7.26007Z" fill="white"/>
</g>
<defs>
<clipPath id="clip0_56_511">
<rect width="30.6618" height="30.6618" fill="white" transform="translate(0 0.446289)"/>
</clipPath>
</defs>
</svg>
