<svg width="92" height="229" viewBox="0 0 92 229" fill="none" xmlns="http://www.w3.org/2000/svg">
<g filter="url(#filter0_d_58_677)">
<path d="M22.0234 176.923L36.8379 61.9783H66.4662L83.2891 176.923L51.652 216.904L22.0234 176.923ZM37.9984 4.5H64.5485L81.2804 26.9952L66.4662 61.9783H36.8379L22.0237 26.9952L37.9984 4.5Z" fill="#FB626D"/>
<path d="M36.8379 61.9783L22.0234 176.923L51.652 216.904L83.2891 176.923L66.4662 61.9783M36.8379 61.9783H66.4662M36.8379 61.9783L22.0237 26.9952L37.9984 4.5H64.5485L81.2804 26.9952L66.4662 61.9783" stroke="white" stroke-width="8" stroke-linecap="round" stroke-linejoin="round"/>
</g>
<path d="M8.84742 99.5715L10.2691 100.977C10.1669 101.08 10.0846 101.204 10.028 101.342C9.97143 101.48 9.94202 101.629 9.94202 101.78C9.94202 101.931 9.97143 102.08 10.028 102.218C10.0846 102.356 10.1669 102.481 10.2691 102.584C10.3712 102.687 10.4912 102.768 10.6216 102.823L8.84742 99.5715ZM8.84742 99.5715L10.2691 100.977C10.3712 100.873 10.4912 100.792 10.6216 100.738C10.7519 100.683 10.8907 100.655 11.0304 100.655C11.3114 100.655 11.5858 100.768 11.7917 100.977C11.9985 101.186 12.1188 101.474 12.1188 101.78C12.1188 102.086 11.9985 102.375 11.7917 102.584C11.5858 102.792 11.3114 102.905 11.0304 102.905C10.8907 102.905 10.7519 102.877 10.6216 102.823L8.84742 99.5715ZM15.133 109.79C14.9098 109.662 14.6809 109.543 14.4472 109.436C14.681 109.329 14.91 109.211 15.1333 109.082L15.5127 109.436L15.133 109.79ZM19.3616 117.092C19.3616 116.896 19.3537 116.705 19.3393 116.517L22.0159 114.621L27.9303 119.066L27.9526 119.083L27.9755 119.099C29.2109 119.974 30.4688 120.392 31.6945 120.421C32.9049 120.449 33.9385 120.094 34.7418 119.654C35.5372 119.218 36.1441 118.679 36.5446 118.266C36.7483 118.056 36.9081 117.868 37.0214 117.727C37.0783 117.656 37.1241 117.596 37.1585 117.55C37.1757 117.527 37.1901 117.507 37.2017 117.491L37.2169 117.469L37.2229 117.461L37.2255 117.457L37.2268 117.455C37.2273 117.454 37.2279 117.454 35.583 116.316L37.2279 117.454L38.3528 115.827L36.7393 114.684L30.0587 109.95L30.0503 108.541V108.541L30.0503 108.541L30.0503 108.54L30.0503 108.538L30.0503 108.53L30.0501 108.496L30.0495 108.373C30.049 108.268 30.0484 108.124 30.048 107.965C30.0473 107.643 30.0473 107.278 30.0502 107.059C30.0502 107.059 30.0502 107.059 30.0503 107.058C30.051 107.046 30.0558 106.967 30.0826 106.759C30.1105 106.541 30.1536 106.246 30.2156 105.832C30.2396 105.672 30.2661 105.497 30.2951 105.305C30.4146 104.515 30.5769 103.441 30.7835 101.995L31.4309 97.4642L27.6663 100.067L22.4953 103.642L21.8173 104.111L19.339 102.355C19.3535 102.168 19.3616 101.976 19.3616 101.78C19.3616 100.123 18.876 98.5009 17.9635 97.1192C17.0509 95.7373 15.7513 94.6566 14.2263 94.0175C12.7011 93.3782 11.0214 93.2106 9.40064 93.5368C7.78005 93.863 6.29469 94.6674 5.1311 95.8447L6.55358 97.2506L5.1311 95.8447C3.96776 97.0218 3.17812 98.5186 2.85844 100.145C2.53878 101.771 2.70264 103.456 3.33025 104.989C3.95795 106.523 5.02249 107.837 6.39283 108.763C6.77457 109.021 7.17518 109.246 7.59025 109.436C7.17518 109.626 6.77457 109.851 6.39283 110.109C5.02249 111.035 3.95795 112.349 3.33025 113.883C2.70264 115.416 2.53878 117.101 2.85844 118.727C3.17812 120.353 3.96776 121.85 5.1311 123.027L6.52351 121.651L5.1311 123.027C6.29468 124.205 7.78004 125.009 9.40064 125.335C11.0214 125.661 12.7011 125.494 14.2263 124.855C15.7513 124.216 17.0509 123.135 17.9635 121.753C18.876 120.371 19.3616 118.749 19.3616 117.092ZM10.2691 117.895C10.0623 117.686 9.94202 117.398 9.94202 117.092C9.94202 116.786 10.0623 116.497 10.2691 116.288C10.475 116.08 10.7494 115.967 11.0304 115.967C11.3114 115.967 11.5858 116.08 11.7917 116.288C11.9985 116.497 12.1188 116.786 12.1188 117.092C12.1188 117.398 11.9985 117.686 11.7917 117.895C11.5858 118.104 11.3114 118.217 11.0304 118.217C10.7494 118.217 10.475 118.104 10.2691 117.895Z" fill="#0C455E" stroke="white" stroke-width="4"/>
<path d="M50.3517 43.45C49.8117 43.45 49.2417 43.41 48.6417 43.33C48.0417 43.27 47.4617 43.18 46.9017 43.06C46.3417 42.94 45.8317 42.81 45.3717 42.67C44.9117 42.53 44.5517 42.4 44.2917 42.28L45.1617 38.56C45.6817 38.78 46.3417 39.02 47.1417 39.28C47.9617 39.52 48.9717 39.64 50.1717 39.64C51.5517 39.64 52.5617 39.38 53.2017 38.86C53.8417 38.34 54.1617 37.64 54.1617 36.76C54.1617 36.22 54.0417 35.77 53.8017 35.41C53.5817 35.03 53.2717 34.73 52.8717 34.51C52.4717 34.27 51.9917 34.11 51.4317 34.03C50.8917 33.93 50.3117 33.88 49.6917 33.88H47.9517V30.28H49.9317C50.3717 30.28 50.7917 30.24 51.1917 30.16C51.6117 30.08 51.9817 29.95 52.3017 29.77C52.6217 29.57 52.8717 29.31 53.0517 28.99C53.2517 28.65 53.3517 28.23 53.3517 27.73C53.3517 27.35 53.2717 27.02 53.1117 26.74C52.9517 26.46 52.7417 26.23 52.4817 26.05C52.2417 25.87 51.9517 25.74 51.6117 25.66C51.2917 25.56 50.9617 25.51 50.6217 25.51C49.7617 25.51 48.9617 25.64 48.2217 25.9C47.5017 26.16 46.8417 26.48 46.2417 26.86L44.6517 23.59C44.9717 23.39 45.3417 23.18 45.7617 22.96C46.2017 22.74 46.6817 22.54 47.2017 22.36C47.7217 22.18 48.2717 22.03 48.8517 21.91C49.4517 21.79 50.0817 21.73 50.7417 21.73C51.9617 21.73 53.0117 21.88 53.8917 22.18C54.7917 22.46 55.5317 22.87 56.1117 23.41C56.6917 23.93 57.1217 24.55 57.4017 25.27C57.6817 25.97 57.8217 26.74 57.8217 27.58C57.8217 28.4 57.5917 29.2 57.1317 29.98C56.6717 30.74 56.0517 31.32 55.2717 31.72C56.3517 32.16 57.1817 32.82 57.7617 33.7C58.3617 34.56 58.6617 35.6 58.6617 36.82C58.6617 37.78 58.5017 38.67 58.1817 39.49C57.8617 40.29 57.3617 40.99 56.6817 41.59C56.0017 42.17 55.1317 42.63 54.0717 42.97C53.0317 43.29 51.7917 43.45 50.3517 43.45Z" fill="white"/>
<defs>
<filter id="filter0_d_58_677" x="14.0234" y="0.5" width="77.2656" height="228.404" filterUnits="userSpaceOnUse" color-interpolation-filters="sRGB">
<feFlood flood-opacity="0" result="BackgroundImageFix"/>
<feColorMatrix in="SourceAlpha" type="matrix" values="0 0 0 0 0 0 0 0 0 0 0 0 0 0 0 0 0 0 127 0" result="hardAlpha"/>
<feOffset dy="4"/>
<feGaussianBlur stdDeviation="2"/>
<feComposite in2="hardAlpha" operator="out"/>
<feColorMatrix type="matrix" values="0 0 0 0 0 0 0 0 0 0 0 0 0 0 0 0 0 0 0.25 0"/>
<feBlend mode="normal" in2="BackgroundImageFix" result="effect1_dropShadow_58_677"/>
<feBlend mode="normal" in="SourceGraphic" in2="effect1_dropShadow_58_677" result="shape"/>
</filter>
</defs>
</svg>
