<svg width="92" height="229" viewBox="0 0 92 229" fill="none" xmlns="http://www.w3.org/2000/svg">
<g filter="url(#filter0_d_58_665)">
<path d="M22.1738 176.923L36.9882 61.9783H66.6165L83.4394 176.923L51.8024 216.904L22.1738 176.923ZM38.1488 4.5H64.6988L81.4307 26.9952L66.6165 61.9783H36.9882L22.1741 26.9952L38.1488 4.5Z" fill="#FB626D"/>
<path d="M36.9882 61.9783L22.1738 176.923L51.8024 216.904L83.4394 176.923L66.6165 61.9783M36.9882 61.9783H66.6165M36.9882 61.9783L22.1741 26.9952L38.1488 4.5H64.6988L81.4307 26.9952L66.6165 61.9783" stroke="white" stroke-width="8" stroke-linecap="round" stroke-linejoin="round"/>
</g>
<path d="M8.99781 99.5715L10.4195 100.977C10.3173 101.08 10.235 101.204 10.1784 101.342C10.1218 101.48 10.0924 101.629 10.0924 101.78C10.0924 101.931 10.1218 102.08 10.1784 102.218C10.235 102.356 10.3173 102.481 10.4195 102.584C10.5216 102.687 10.6416 102.768 10.772 102.823L8.99781 99.5715ZM8.99781 99.5715L10.4195 100.977C10.5216 100.873 10.6416 100.792 10.772 100.738C10.9023 100.683 11.0411 100.655 11.1808 100.655C11.4618 100.655 11.7362 100.768 11.9421 100.977C12.1489 101.186 12.2692 101.474 12.2692 101.78C12.2692 102.086 12.1489 102.375 11.9421 102.584C11.7362 102.792 11.4618 102.905 11.1808 102.905C11.0411 102.905 10.9023 102.877 10.772 102.823L8.99781 99.5715ZM15.2834 109.79C15.0602 109.662 14.8313 109.543 14.5976 109.436C14.8314 109.329 15.0604 109.211 15.2837 109.082L15.6631 109.436L15.2834 109.79ZM19.512 117.092C19.512 116.896 19.5041 116.705 19.4897 116.517L22.1663 114.621L28.0807 119.066L28.103 119.083L28.1259 119.099C29.3613 119.974 30.6192 120.392 31.8449 120.421C33.0553 120.449 34.0889 120.094 34.8922 119.654C35.6876 119.218 36.2945 118.679 36.695 118.266C36.8987 118.056 37.0585 117.868 37.1718 117.727C37.2287 117.656 37.2745 117.596 37.3088 117.55C37.3261 117.527 37.3405 117.507 37.3521 117.491L37.3673 117.469L37.3733 117.461L37.3759 117.457L37.3771 117.455C37.3777 117.454 37.3783 117.454 35.7334 116.316L37.3783 117.454L38.5031 115.827L36.8897 114.684L30.2091 109.95L30.2007 108.541V108.541L30.2007 108.541L30.2007 108.54L30.2007 108.538L30.2007 108.53L30.2005 108.496L30.1999 108.373C30.1994 108.268 30.1988 108.124 30.1984 107.965C30.1977 107.643 30.1977 107.278 30.2006 107.059C30.2006 107.059 30.2006 107.059 30.2007 107.058C30.2014 107.046 30.2062 106.967 30.233 106.759C30.2609 106.541 30.3039 106.246 30.366 105.832C30.39 105.672 30.4165 105.497 30.4455 105.305C30.565 104.515 30.7273 103.441 30.9339 101.995L31.5813 97.4642L27.8167 100.067L22.6457 103.642L21.9676 104.111L19.4894 102.355C19.5039 102.168 19.512 101.976 19.512 101.78C19.512 100.123 19.0263 98.5009 18.1139 97.1192C17.2013 95.7373 15.9016 94.6566 14.3767 94.0175C12.8515 93.3782 11.1718 93.2106 9.55103 93.5368C7.93044 93.863 6.44508 94.6674 5.28149 95.8447L6.70397 97.2506L5.28149 95.8447C4.11815 97.0218 3.32851 98.5186 3.00883 100.145C2.68917 101.771 2.85303 103.456 3.48064 104.989C4.10834 106.523 5.17288 107.837 6.54322 108.763C6.92496 109.021 7.32557 109.246 7.74064 109.436C7.32557 109.626 6.92496 109.851 6.54322 110.109C5.17288 111.035 4.10834 112.349 3.48064 113.883C2.85303 115.416 2.68917 117.101 3.00883 118.727C3.32851 120.353 4.11815 121.85 5.28149 123.027L6.6739 121.651L5.28149 123.027C6.44507 124.205 7.93043 125.009 9.55103 125.335C11.1718 125.661 12.8515 125.494 14.3767 124.855C15.9016 124.216 17.2013 123.135 18.1139 121.753C19.0263 120.371 19.512 118.749 19.512 117.092ZM10.4195 117.895C10.2127 117.686 10.0924 117.398 10.0924 117.092C10.0924 116.786 10.2127 116.497 10.4195 116.288C10.6254 116.08 10.8998 115.967 11.1808 115.967C11.4618 115.967 11.7362 116.08 11.9421 116.288C12.1489 116.497 12.2692 116.786 12.2692 117.092C12.2692 117.398 12.1489 117.686 11.9421 117.895C11.7362 118.104 11.4618 118.217 11.1808 118.217C10.8997 118.217 10.6254 118.104 10.4195 117.895Z" fill="#0C455E" stroke="white" stroke-width="4"/>
<path d="M59.3917 27.67C59.3917 28.43 59.2417 29.16 58.9417 29.86C58.6417 30.56 58.2517 31.24 57.7717 31.9C57.2917 32.54 56.7517 33.16 56.1517 33.76C55.5517 34.36 54.9617 34.93 54.3817 35.47C54.0817 35.75 53.7517 36.07 53.3917 36.43C53.0517 36.77 52.7217 37.12 52.4017 37.48C52.0817 37.84 51.7917 38.18 51.5317 38.5C51.2917 38.8 51.1417 39.05 51.0817 39.25H60.0217V43H46.1617C46.1217 42.78 46.1017 42.5 46.1017 42.16C46.1017 41.82 46.1017 41.58 46.1017 41.44C46.1017 40.48 46.2517 39.6 46.5517 38.8C46.8717 38 47.2817 37.26 47.7817 36.58C48.2817 35.88 48.8417 35.23 49.4617 34.63C50.1017 34.03 50.7317 33.43 51.3517 32.83C51.8317 32.37 52.2817 31.94 52.7017 31.54C53.1217 31.12 53.4917 30.72 53.8117 30.34C54.1317 29.94 54.3817 29.55 54.5617 29.17C54.7417 28.77 54.8317 28.37 54.8317 27.97C54.8317 27.09 54.5817 26.47 54.0817 26.11C53.5817 25.75 52.9617 25.57 52.2217 25.57C51.6817 25.57 51.1717 25.66 50.6917 25.84C50.2317 26 49.8017 26.2 49.4017 26.44C49.0217 26.66 48.6917 26.89 48.4117 27.13C48.1317 27.35 47.9217 27.53 47.7817 27.67L45.5617 24.55C46.4417 23.73 47.4617 23.06 48.6217 22.54C49.8017 22 51.0617 21.73 52.4017 21.73C53.6217 21.73 54.6717 21.87 55.5517 22.15C56.4317 22.43 57.1517 22.83 57.7117 23.35C58.2917 23.85 58.7117 24.47 58.9717 25.21C59.2517 25.93 59.3917 26.75 59.3917 27.67Z" fill="white"/>
<defs>
<filter id="filter0_d_58_665" x="14.1738" y="0.5" width="77.2656" height="228.404" filterUnits="userSpaceOnUse" color-interpolation-filters="sRGB">
<feFlood flood-opacity="0" result="BackgroundImageFix"/>
<feColorMatrix in="SourceAlpha" type="matrix" values="0 0 0 0 0 0 0 0 0 0 0 0 0 0 0 0 0 0 127 0" result="hardAlpha"/>
<feOffset dy="4"/>
<feGaussianBlur stdDeviation="2"/>
<feComposite in2="hardAlpha" operator="out"/>
<feColorMatrix type="matrix" values="0 0 0 0 0 0 0 0 0 0 0 0 0 0 0 0 0 0 0.25 0"/>
<feBlend mode="normal" in2="BackgroundImageFix" result="effect1_dropShadow_58_665"/>
<feBlend mode="normal" in="SourceGraphic" in2="effect1_dropShadow_58_665" result="shape"/>
</filter>
</defs>
</svg>
