<svg width="91" height="229" viewBox="0 0 91 229" fill="none" xmlns="http://www.w3.org/2000/svg">
<g filter="url(#filter0_d_0_1)">
<path d="M21.3242 176.923L36.1386 61.9783H65.767L82.5898 176.923L50.9528 216.904L21.3242 176.923ZM37.2992 4.5H63.8492L80.5811 26.9952L65.767 61.9783H36.1386L21.3245 26.9952L37.2992 4.5Z" fill="#FB626D"/>
<path d="M36.1386 61.9783L21.3242 176.923L50.9528 216.904L82.5898 176.923L65.767 61.9783M36.1386 61.9783H65.767M36.1386 61.9783L21.3245 26.9952L37.2992 4.5H63.8492L80.5811 26.9952L65.767 61.9783" stroke="white" stroke-width="8" stroke-linecap="round" stroke-linejoin="round"/>
</g>
<path d="M2.63103 104.989L4.48193 104.232L2.63103 104.989C3.25873 106.523 4.32326 107.837 5.69361 108.763C6.07535 109.021 6.47596 109.246 6.89103 109.436C6.47596 109.626 6.07535 109.851 5.69361 110.109C4.32327 111.035 3.25873 112.349 2.63103 113.883C2.00342 115.416 1.83956 117.101 2.15922 118.727C2.4789 120.353 3.26854 121.85 4.43188 123.027C5.59546 124.205 7.08082 125.009 8.70142 125.335C10.3222 125.661 12.0018 125.494 13.5271 124.855C15.052 124.215 16.3516 123.135 17.2643 121.753C18.1767 120.371 18.6623 118.749 18.6623 117.092C18.6623 116.896 18.6545 116.705 18.6401 116.517L21.3167 114.621L27.231 119.066L27.2534 119.083L27.2762 119.099C28.5117 119.974 29.7696 120.392 30.9953 120.421C32.2056 120.449 33.2393 120.094 34.0425 119.654C34.838 119.218 35.4449 118.679 35.8454 118.266C36.0491 118.056 36.2088 117.868 36.3222 117.727C36.379 117.656 36.4248 117.596 36.4592 117.55C36.4764 117.527 36.4909 117.507 36.5024 117.491L36.5177 117.469L36.5237 117.461L36.5263 117.457L36.5275 117.455C36.5281 117.454 36.5287 117.454 34.8838 116.316L36.5287 117.454L37.6535 115.827L36.0401 114.684L29.3595 109.95L29.3511 108.541V108.541L29.3511 108.541L29.3511 108.54L29.3511 108.538L29.351 108.53L29.3509 108.496L29.3503 108.373C29.3498 108.268 29.3492 108.124 29.3488 107.965C29.348 107.643 29.3481 107.278 29.351 107.059C29.351 107.059 29.351 107.059 29.3511 107.058C29.3518 107.046 29.3566 106.967 29.3834 106.759C29.4113 106.541 29.4543 106.246 29.5164 105.832C29.5404 105.672 29.5668 105.497 29.5958 105.305C29.7153 104.515 29.8777 103.441 30.0843 101.995L30.7317 97.4642L26.967 100.067L21.7961 103.642L21.118 104.111L18.6398 102.355C18.6543 102.168 18.6623 101.976 18.6623 101.78C18.6623 100.123 18.1767 98.5009 17.2643 97.1192L15.6606 98.1782L17.2643 97.1192C16.3516 95.7373 15.052 94.6566 13.5271 94.0175C12.0018 93.3782 10.3222 93.2106 8.70142 93.5368C7.08083 93.863 5.59547 94.6674 4.43188 95.8447C3.26854 97.0218 2.4789 98.5186 2.15922 100.145C1.83956 101.771 2.00342 103.456 2.63103 104.989ZM13.748 109.436C13.9818 109.329 14.2107 109.211 14.4341 109.082L14.8134 109.436L14.4338 109.79C14.2106 109.662 13.9817 109.543 13.748 109.436ZM10.3312 102.905C10.1915 102.905 10.0527 102.877 9.92236 102.823L9.92236 102.823C9.79199 102.768 9.67199 102.687 9.56984 102.584C9.46765 102.481 9.38535 102.356 9.32879 102.218C9.27221 102.08 9.2428 101.931 9.2428 101.78C9.2428 101.629 9.27221 101.48 9.32879 101.342C9.38535 101.204 9.46765 101.08 9.56985 100.977C9.67199 100.873 9.79199 100.792 9.92236 100.738C10.0527 100.683 10.1915 100.655 10.3312 100.655C10.6122 100.655 10.8865 100.768 11.0925 100.977C11.2993 101.186 11.4196 101.474 11.4196 101.78C11.4196 102.086 11.2993 102.375 11.0925 102.584C10.8865 102.792 10.6122 102.905 10.3312 102.905ZM10.3312 118.217C10.0501 118.217 9.7758 118.104 9.56985 117.895C9.3631 117.686 9.2428 117.398 9.2428 117.092C9.2428 116.786 9.36309 116.497 9.56985 116.288C9.77581 116.08 10.0501 115.967 10.3312 115.967C10.6122 115.967 10.8865 116.08 11.0925 116.288C11.2993 116.497 11.4196 116.786 11.4196 117.092C11.4196 117.398 11.2993 117.686 11.0925 117.895C10.8865 118.104 10.6122 118.217 10.3312 118.217Z" fill="#0C455E" stroke="white" stroke-width="4"/>
<defs>
<filter id="filter0_d_0_1" x="13.3242" y="0.5" width="77.2656" height="228.404" filterUnits="userSpaceOnUse" color-interpolation-filters="sRGB">
<feFlood flood-opacity="0" result="BackgroundImageFix"/>
<feColorMatrix in="SourceAlpha" type="matrix" values="0 0 0 0 0 0 0 0 0 0 0 0 0 0 0 0 0 0 127 0" result="hardAlpha"/>
<feOffset dy="4"/>
<feGaussianBlur stdDeviation="2"/>
<feComposite in2="hardAlpha" operator="out"/>
<feColorMatrix type="matrix" values="0 0 0 0 0 0 0 0 0 0 0 0 0 0 0 0 0 0 0.25 0"/>
<feBlend mode="normal" in2="BackgroundImageFix" result="effect1_dropShadow_0_1"/>
<feBlend mode="normal" in="SourceGraphic" in2="effect1_dropShadow_0_1" result="shape"/>
</filter>
</defs>
</svg>
