<svg width="92" height="229" viewBox="0 0 92 229" fill="none" xmlns="http://www.w3.org/2000/svg">
<g filter="url(#filter0_d_58_685)">
<path d="M21.873 176.923L36.6875 61.9783H66.3158L83.1387 176.923L51.5016 216.904L21.873 176.923ZM37.8481 4.5H64.3981L81.13 26.9952L66.3158 61.9783H36.6875L21.8733 26.9952L37.8481 4.5Z" fill="#FB626D"/>
<path d="M36.6875 61.9783L21.873 176.923L51.5016 216.904L83.1387 176.923L66.3158 61.9783M36.6875 61.9783H66.3158M36.6875 61.9783L21.8733 26.9952L37.8481 4.5H64.3981L81.13 26.9952L66.3158 61.9783" stroke="white" stroke-width="8" stroke-linecap="round" stroke-linejoin="round"/>
</g>
<path d="M13.0638 99.5707L11.6413 100.977C11.4353 100.768 11.161 100.655 10.88 100.655C10.7403 100.655 10.6015 100.683 10.4712 100.738C10.3408 100.792 10.2208 100.873 10.1187 100.977C10.0165 101.08 9.93417 101.204 9.87761 101.342C9.82103 101.48 9.79162 101.629 9.79162 101.78C9.79162 101.931 9.82103 102.08 9.87761 102.218C9.93417 102.357 10.0165 102.481 10.1187 102.584C10.2208 102.687 10.3408 102.768 10.4712 102.823L13.0638 99.5707ZM13.0638 99.5707L11.6413 100.977C11.848 101.186 11.9683 101.474 11.9683 101.78C11.9683 102.086 11.8481 102.375 11.6413 102.584C11.4353 102.792 11.161 102.905 10.88 102.905C10.7403 102.905 10.6015 102.877 10.4712 102.823L13.0638 99.5707ZM14.9826 109.79C14.7593 109.662 14.5305 109.543 14.2968 109.436C14.5306 109.329 14.7595 109.211 14.9829 109.082L15.3622 109.436L14.9826 109.79ZM19.2111 117.092C19.2111 116.896 19.2032 116.705 19.1888 116.517L21.8655 114.622L27.7798 119.066L27.8021 119.083L27.825 119.099C29.0604 119.974 30.3183 120.392 31.544 120.421C32.7544 120.449 33.788 120.094 34.5913 119.654C35.3867 119.218 35.9936 118.679 36.3941 118.266C36.5978 118.056 36.7576 117.868 36.8709 117.727C36.9278 117.656 36.9736 117.596 37.0079 117.55C37.0161 117.539 37.0236 117.529 37.0305 117.519C37.0382 117.509 37.0451 117.499 37.0512 117.491L37.0664 117.469L37.0724 117.461L37.075 117.457L37.0762 117.455C37.0768 117.454 37.0774 117.454 35.4325 116.316L37.0774 117.454L38.2022 115.827L36.5888 114.684L29.9082 109.95L29.8999 108.541V108.541L29.8999 108.541L29.8999 108.54L29.8998 108.538L29.8998 108.53L29.8996 108.496L29.899 108.373C29.8985 108.268 29.8979 108.124 29.8976 107.965C29.8968 107.643 29.8969 107.278 29.8997 107.059C29.8997 107.059 29.8997 107.059 29.8998 107.058C29.9005 107.046 29.9054 106.967 29.9321 106.759C29.96 106.541 30.0031 106.246 30.0651 105.832C30.0891 105.672 30.1156 105.497 30.1446 105.305C30.2641 104.515 30.4265 103.441 30.633 101.995L31.2805 97.4642L27.5158 100.067L22.3449 103.642L21.6668 104.111L19.1886 102.355C19.2031 102.168 19.2111 101.976 19.2111 101.78C19.2111 100.123 18.7255 98.5009 17.8131 97.1192C16.9004 95.7373 15.6008 94.6566 14.0759 94.0175C12.5506 93.3782 10.871 93.2106 9.25023 93.5368C7.62964 93.863 6.14428 94.6674 4.9807 95.8447C3.81736 97.0218 3.02772 98.5186 2.70805 100.145C2.38839 101.771 2.55225 103.456 3.17986 104.989C3.80755 106.523 4.87208 107.837 6.24243 108.763C6.62416 109.021 7.02477 109.246 7.43985 109.436C7.02478 109.626 6.62417 109.851 6.24243 110.109C4.87208 111.035 3.80755 112.349 3.17986 113.883C2.55225 115.416 2.38839 117.101 2.70805 118.727C3.02772 120.353 3.81736 121.85 4.9807 123.027L6.37923 121.645L4.9807 123.027C6.14428 124.205 7.62963 125.009 9.25023 125.335C10.871 125.661 12.5507 125.494 14.0759 124.855C15.6008 124.215 16.9004 123.135 17.8131 121.753C18.7255 120.371 19.2111 118.749 19.2111 117.092ZM10.88 118.217C10.5989 118.217 10.3246 118.104 10.1187 117.895C9.91191 117.686 9.79162 117.398 9.79162 117.092C9.79162 116.786 9.91191 116.497 10.1187 116.288C10.3246 116.08 10.599 115.967 10.88 115.967C11.161 115.967 11.4353 116.08 11.6413 116.288L13.0638 114.882L11.6413 116.288C11.8481 116.497 11.9683 116.786 11.9683 117.092C11.9683 117.398 11.848 117.686 11.6413 117.895L13.0638 119.301L11.6413 117.895C11.4353 118.104 11.161 118.217 10.88 118.217Z" fill="#0C455E" stroke="white" stroke-width="4"/>
<path d="M54.0798 27.67C53.2998 28.69 52.4698 29.8 51.5898 31C50.7098 32.2 49.9698 33.43 49.3698 34.69H54.0798V27.67ZM58.4598 22.21V34.69H60.6798V38.35H58.4598V43H54.0798V38.35H45.1098V35.08C45.5498 34.2 46.0998 33.21 46.7598 32.11C47.4198 30.99 48.1498 29.85 48.9498 28.69C49.7698 27.51 50.6298 26.36 51.5298 25.24C52.4298 24.12 53.3298 23.11 54.2298 22.21H58.4598Z" fill="white"/>
<defs>
<filter id="filter0_d_58_685" x="13.873" y="0.5" width="77.2656" height="228.404" filterUnits="userSpaceOnUse" color-interpolation-filters="sRGB">
<feFlood flood-opacity="0" result="BackgroundImageFix"/>
<feColorMatrix in="SourceAlpha" type="matrix" values="0 0 0 0 0 0 0 0 0 0 0 0 0 0 0 0 0 0 127 0" result="hardAlpha"/>
<feOffset dy="4"/>
<feGaussianBlur stdDeviation="2"/>
<feComposite in2="hardAlpha" operator="out"/>
<feColorMatrix type="matrix" values="0 0 0 0 0 0 0 0 0 0 0 0 0 0 0 0 0 0 0.25 0"/>
<feBlend mode="normal" in2="BackgroundImageFix" result="effect1_dropShadow_58_685"/>
<feBlend mode="normal" in="SourceGraphic" in2="effect1_dropShadow_58_685" result="shape"/>
</filter>
</defs>
</svg>
