<svg width="31" height="32" viewBox="0 0 31 32" fill="none" xmlns="http://www.w3.org/2000/svg">
<path d="M15.337 8.0966C10.9841 8.0966 7.47308 11.6076 7.47308 15.9605C7.47308 20.3134 10.9841 23.8244 15.337 23.8244C19.6899 23.8244 23.2009 20.3134 23.2009 15.9605C23.2009 11.6076 19.6899 8.0966 15.337 8.0966ZM15.337 21.0731C12.5241 21.0731 10.2244 18.7803 10.2244 15.9605C10.2244 13.1407 12.5172 10.8479 15.337 10.8479C18.1568 10.8479 20.4496 13.1407 20.4496 15.9605C20.4496 18.7803 18.1499 21.0731 15.337 21.0731V21.0731ZM25.3568 7.77493C25.3568 8.79471 24.5355 9.60916 23.5226 9.60916C22.5028 9.60916 21.6884 8.78786 21.6884 7.77493C21.6884 6.762 22.5097 5.9407 23.5226 5.9407C24.5355 5.9407 25.3568 6.762 25.3568 7.77493ZM30.5652 9.63654C30.4489 7.17949 29.8876 5.00305 28.0876 3.20989C26.2945 1.41672 24.118 0.855502 21.661 0.732307C19.1287 0.58858 11.5385 0.58858 9.00617 0.732307C6.55596 0.848657 4.37953 1.40988 2.57952 3.20304C0.779506 4.99621 0.22513 7.17264 0.101936 9.62969C-0.0417911 12.162 -0.0417911 19.7522 0.101936 22.2845C0.218286 24.7416 0.779506 26.918 2.57952 28.7112C4.37953 30.5043 6.54912 31.0655 9.00617 31.1887C11.5385 31.3325 19.1287 31.3325 21.661 31.1887C24.118 31.0724 26.2945 30.5112 28.0876 28.7112C29.8808 26.918 30.442 24.7416 30.5652 22.2845C30.7089 19.7522 30.7089 12.1689 30.5652 9.63654V9.63654ZM27.2937 25.0016C26.7599 26.3431 25.7264 27.3766 24.3781 27.9172C22.3591 28.718 17.5682 28.5332 15.337 28.5332C13.1058 28.5332 8.30806 28.7112 6.29588 27.9172C4.95443 27.3834 3.92097 26.3499 3.38028 25.0016C2.57952 22.9826 2.76431 18.1917 2.76431 15.9605C2.76431 13.7293 2.58636 8.93159 3.38028 6.91941C3.91412 5.57796 4.94759 4.54449 6.29588 4.00381C8.31491 3.20304 13.1058 3.38783 15.337 3.38783C17.5682 3.38783 22.3659 3.20989 24.3781 4.00381C25.7196 4.53765 26.753 5.57112 27.2937 6.91941C28.0945 8.93843 27.9097 13.7293 27.9097 15.9605C27.9097 18.1917 28.0945 22.9895 27.2937 25.0016Z" fill="white"/>
</svg>
