<svg width="64" height="61" viewBox="0 0 64 61" fill="none" xmlns="http://www.w3.org/2000/svg">
<path d="M22.3147 12.1746L15.0187 9.85404C14.2169 9.59951 13.3631 9.53022 12.5278 9.65189C11.6924 9.77355 10.8993 10.0827 10.2138 10.5538C9.52839 11.0249 8.97022 11.6445 8.58532 12.3616C8.20041 13.0787 7.9998 13.8727 8 14.6781V44.6266C7.99973 45.6939 8.35194 46.7342 9.00671 47.6001C9.66147 48.4659 10.5856 49.1134 11.648 49.4507L22.3147 52.8387C23.4087 53.186 24.5913 53.186 25.6853 52.8387L38.3147 48.828C39.4087 48.4807 40.5913 48.4807 41.6853 48.828L48.9813 51.1459C49.7833 51.4005 50.6373 51.4698 51.4729 51.348C52.3085 51.2262 53.1017 50.9169 53.7872 50.4454C54.4727 49.974 55.0309 49.3541 55.4156 48.6367C55.8003 47.9193 56.0006 47.125 56 46.3193V16.3734C56.0005 15.3064 55.6486 14.2663 54.9944 13.4005C54.3401 12.5347 53.4166 11.887 52.3547 11.5493L41.688 8.16129C40.5932 7.81342 39.4095 7.81342 38.3147 8.16129L25.6827 12.172C24.5887 12.5193 23.406 12.5193 22.312 12.172L22.3147 12.1746Z" stroke="white" stroke-width="4" stroke-linecap="round" stroke-linejoin="round"/>
<path d="M40 7.625V48.2917M24 12.7083V53.375V12.7083Z" stroke="white" stroke-width="4" stroke-linejoin="round"/>
</svg>
