<svg width="52" height="35" viewBox="0 0 52 35" fill="none" xmlns="http://www.w3.org/2000/svg">
<path d="M3.88312 34.4782H47.4193C49.1983 34.4782 50.6404 33.0362 50.6404 31.2572C50.6404 29.4783 49.1983 28.0362 47.4193 28.0362H3.88312C2.10421 28.0362 0.662109 29.4783 0.662109 31.2572C0.662109 33.0362 2.10421 34.4782 3.88312 34.4782ZM3.88312 20.8732H47.4193C49.1983 20.8732 50.6404 19.4311 50.6404 17.6522C50.6404 15.8732 49.1983 14.4312 47.4193 14.4312H3.88312C2.10421 14.4312 0.662109 15.8732 0.662109 17.6522C0.662109 19.4311 2.10421 20.8732 3.88312 20.8732ZM3.88312 7.26811H47.4193C49.1983 7.26811 50.6404 5.82601 50.6404 4.04709C50.6404 2.26818 49.1983 0.82608 47.4193 0.82608H3.88312C2.10421 0.82608 0.662109 2.26818 0.662109 4.04709C0.662109 5.82601 2.10421 7.26811 3.88312 7.26811Z" fill="white" stroke="white"/>
</svg>
