<svg width="41" height="41" viewBox="0 0 41 41" fill="none" xmlns="http://www.w3.org/2000/svg">
<path d="M39.7188 24.026C39.7188 22.8235 39.1467 21.6134 38.0448 20.9715C38.2953 19.7229 38.4791 18.2783 38.4791 16.6575C38.4785 9.61002 33.4438 1.28125 20.5 1.28125C7.55489 1.28125 2.5215 9.61002 2.5215 16.6575C2.5215 18.2777 2.70536 19.7216 2.95584 20.9702C1.85205 21.6121 1.28125 22.8235 1.28125 24.026C1.28125 25.3726 2.00195 26.7237 3.38058 27.2791C1.87703 30.1119 1.24217 34.1805 2.81298 37.0512C3.49269 38.2934 9.66703 42.2524 11.7177 37.2703C14.0624 38.3824 16.9766 39.082 20.5 39.082C24.0234 39.082 26.9364 38.3824 29.281 37.2703C31.333 42.2524 37.5067 38.294 38.187 37.0512C39.7559 34.1812 39.1217 30.1132 37.6175 27.2791C38.9968 26.7237 39.7188 25.3732 39.7188 24.026ZM20.5064 3.84375C29.987 3.84375 36.3093 8.96939 36.3093 15.3763C36.3093 15.3763 34.4125 5.76627 20.5064 5.76627C6.60036 5.76627 4.07053 15.3763 4.07053 15.3763C4.07053 8.96939 11.0245 3.84375 20.5064 3.84375ZM35.5874 26.2682V26.9088C35.5874 31.4323 30.9063 37.8007 20.5 37.8007C10.0924 37.8007 5.41136 31.4323 5.41136 26.9088V26.2682H4.79188C3.22298 26.2682 2.52086 25.142 2.52086 24.026C2.52086 22.91 3.22298 21.7838 4.79188 21.7838H4.90975L5.01994 21.739C5.07888 21.7153 10.4178 19.4539 10.3602 12.8234C16.4301 18.7005 32.2292 19.6928 35.5874 19.8395V21.7845H36.2081C37.7757 21.7845 38.4791 22.9107 38.4791 24.0266C38.4791 25.1426 37.7757 26.2688 36.2081 26.2688H35.5874V26.2682Z" fill="#0D3749"/>
<path d="M28.5078 26.5884C30.2768 26.5884 31.7109 25.1543 31.7109 23.3853C31.7109 21.6162 30.2768 20.1821 28.5078 20.1821C26.7388 20.1821 25.3047 21.6162 25.3047 23.3853C25.3047 25.1543 26.7388 26.5884 28.5078 26.5884Z" fill="#0D3749"/>
<path d="M12.4922 26.5884C14.2612 26.5884 15.6953 25.1543 15.6953 23.3853C15.6953 21.6162 14.2612 20.1821 12.4922 20.1821C10.7232 20.1821 9.28906 21.6162 9.28906 23.3853C9.28906 25.1543 10.7232 26.5884 12.4922 26.5884Z" fill="#0D3749"/>
<path d="M25.6829 30.8338C22.3421 33.1401 18.6361 33.126 15.3164 30.8338C14.9185 30.5571 14.5579 31.035 14.8282 31.4783C15.8378 33.126 17.8827 34.5962 20.499 34.5962C23.1166 34.5962 25.1608 33.126 26.1711 31.4783C26.4434 31.035 26.0833 30.5571 25.6829 30.8338Z" fill="#0D3749"/>
</svg>
