<svg width="41" height="41" viewBox="0 0 41 41" fill="none" xmlns="http://www.w3.org/2000/svg">
<path d="M37.6803 20.5205C37.7815 19.468 37.859 18.1092 37.859 16.4038C37.8597 10.9496 34.759 1.28125 20.5 1.28125C6.24097 1.28125 3.14034 10.9496 3.14034 16.4038C3.14034 18.1092 3.21786 19.468 3.3178 20.5205C1.97569 21.1598 1.28125 22.6205 1.28125 24.0657C1.28125 25.1048 1.62014 26.0811 2.2345 26.8127C2.82003 27.511 3.60736 27.9377 4.53306 28.0639C4.99111 35.5765 14.1315 39.7188 20.5 39.7188C26.8672 39.7188 36.0089 35.5765 36.4657 28.0645C37.3926 27.9383 38.18 27.5116 38.7655 26.814C39.3811 26.0811 39.7188 25.1048 39.7188 24.0657C39.7188 22.6205 39.0243 21.1598 37.6803 20.5205ZM37.8231 25.9946C37.3561 26.5507 36.6796 26.8441 35.8635 26.8441H35.2427V27.4738C35.2427 34.2792 26.6558 38.458 20.4994 38.458C14.3423 38.458 5.75473 34.2798 5.75473 27.4738V26.8441H5.13653C4.3223 26.8441 3.64387 26.5507 3.17814 25.9946C2.76045 25.4988 2.5215 24.7948 2.5215 24.0657C2.5215 22.7614 3.24989 21.4449 4.87644 21.4449H5.36588L5.47991 20.9606C5.49977 20.8741 5.97895 18.7934 6.24097 14.4C6.31848 13.088 6.89633 12.6229 8.44536 12.6229C9.5325 12.6229 10.9476 12.8727 12.5857 13.1616C14.8055 13.5543 17.5711 14.0425 20.5 14.0425C23.4302 14.0425 26.1958 13.5543 28.4162 13.1623C30.053 12.8727 31.4681 12.6235 32.5553 12.6235C34.1043 12.6235 34.6809 13.0886 34.7597 14.4006C35.0223 18.7927 35.499 20.8741 35.5207 20.96L35.6335 21.4456H36.1242C37.7508 21.4456 38.4791 22.762 38.4791 24.0664C38.4785 24.7948 38.2395 25.4988 37.8231 25.9946Z" fill="#0D3749"/>
<path d="M28.5065 19.2188C26.7358 19.2188 25.3047 20.6518 25.3047 22.4219C25.3047 24.1919 26.7358 25.625 28.5065 25.625C29.3561 25.625 30.1708 25.2875 30.7715 24.6868C31.3722 24.0861 31.7097 23.2714 31.7097 22.4219C31.7097 21.5724 31.3722 20.7576 30.7715 20.1569C30.1708 19.5562 29.3561 19.2188 28.5065 19.2188Z" fill="#0D3749"/>
<path d="M12.4922 25.625C14.2612 25.625 15.6953 24.1909 15.6953 22.4219C15.6953 20.6528 14.2612 19.2188 12.4922 19.2188C10.7232 19.2188 9.28906 20.6528 9.28906 22.4219C9.28906 24.1909 10.7232 25.625 12.4922 25.625Z" fill="#0D3749"/>
<path d="M25.6829 30.5111C22.3421 32.8173 18.6373 32.8032 15.3176 30.5111C14.9185 30.2343 14.5578 30.7122 14.8282 31.1555C15.8397 32.8032 17.8827 34.2734 20.5003 34.2734C23.1166 34.2734 25.1608 32.8032 26.1711 31.1555C26.4434 30.7122 26.0833 30.2343 25.6829 30.5111Z" fill="#0D3749"/>
</svg>
