<svg width="48" height="48" viewBox="0 0 48 48" fill="none" xmlns="http://www.w3.org/2000/svg">
<path fill-rule="evenodd" clip-rule="evenodd" d="M29.0861 5.19581C28.6259 4.23747 27.9043 3.42866 27.0045 2.86255C26.1046 2.29645 25.0632 1.99609 24.0001 1.99609C22.937 1.99609 21.8955 2.29645 20.9957 2.86255C20.0959 3.42866 19.3743 4.23747 18.9141 5.19581L2.68209 37.1258C0.740086 40.9378 3.19409 45.9998 7.76609 45.9998H40.2321C44.8061 45.9998 47.2561 40.9398 45.3181 37.1258L29.0861 5.19581ZM24.0001 15.9998C24.5305 15.9998 25.0392 16.2105 25.4143 16.5856C25.7894 16.9607 26.0001 17.4694 26.0001 17.9998V27.9998C26.0001 28.5302 25.7894 29.0389 25.4143 29.414C25.0392 29.7891 24.5305 29.9998 24.0001 29.9998C23.4697 29.9998 22.9609 29.7891 22.5859 29.414C22.2108 29.0389 22.0001 28.5302 22.0001 27.9998V17.9998C22.0001 17.4694 22.2108 16.9607 22.5859 16.5856C22.9609 16.2105 23.4697 15.9998 24.0001 15.9998ZM24.0001 32.9998C24.5305 32.9998 25.0392 33.2105 25.4143 33.5856C25.7894 33.9607 26.0001 34.4694 26.0001 34.9998V35.9998C26.0001 36.5302 25.7894 37.0389 25.4143 37.414C25.0392 37.7891 24.5305 37.9998 24.0001 37.9998C23.4697 37.9998 22.9609 37.7891 22.5859 37.414C22.2108 37.0389 22.0001 36.5302 22.0001 35.9998V34.9998C22.0001 34.4694 22.2108 33.9607 22.5859 33.5856C22.9609 33.2105 23.4697 32.9998 24.0001 32.9998Z" fill="#CD1111" fill-opacity="0.81"/>
</svg>
